<svg id="Layer_1" data-name="Layer 1" xmlns="http://www.w3.org/2000/svg" viewBox="0 0 253.41 270.9"><defs><style>.cls-1{fill:none;}.cls-2{fill:#565a68;}.cls-3{fill:#4a4a60;}.cls-4{fill:#7a3ba3;}.cls-5{fill:#636363;}.cls-6{fill:#4c4c4c;}.cls-7{fill:#2f363a;}.cls-8{fill:#18151c;}.cls-9{fill:#7c7c7c;}.cls-10{fill:#6c707b;}.cls-11{fill:#898989;}.cls-12{fill:#a8a8a8;}.cls-13{fill:#79b533;}.cls-14{fill:#ab2560;}.cls-15{fill:#f2da35;}.cls-16{fill:#120f15;}</style></defs><title>arcade</title><rect class="cls-1" x="46.37" y="83.08" width="159.8" height="110.47" rx="10.27"/><path class="cls-2" d="M37.11,74.87V199.75H215.42V74.87ZM195.89,196.54H56.64a13.28,13.28,0,0,1-13.27-13.27V93.35A13.28,13.28,0,0,1,56.64,80.08H195.89a13.28,13.28,0,0,1,13.27,13.27v89.92A13.28,13.28,0,0,1,195.89,196.54Z"/><rect class="cls-3" x="26.92" y="3" width="199.09" height="46.91"/><rect class="cls-4" x="17.43" y="3" width="6.5" height="46.91"/><rect class="cls-4" x="229.01" y="3" width="6.5" height="46.91"/><polygon class="cls-5" points="227.35 65.37 227.35 211.25 227.35 216.16 230.76 216.16 230.76 60.46 227.35 60.46 227.35 65.37"/><polygon class="cls-5" points="25.18 211.25 25.18 65.37 25.18 60.46 21.77 60.46 21.77 216.16 25.18 216.16 25.18 211.25"/><polygon class="cls-6" points="34.11 74.04 28.18 68.72 28.18 207.32 34.11 200.68 34.11 74.04"/><polygon class="cls-6" points="218.42 74.04 218.42 200.68 224.35 207.32 224.35 68.72 218.42 74.04"/><polygon class="cls-6" points="216.34 71.87 221.93 66.87 30.6 66.87 36.19 71.87 216.34 71.87"/><path class="cls-6" d="M216.25,202.75h-180l-6.25,7H60.65a11.9,11.9,0,0,1,17.49,0H222.5Z"/><polygon class="cls-3" points="31.78 57.46 221.15 57.46 224.53 52.91 28.4 52.91 31.78 57.46"/><polygon class="cls-4" points="228.26 52.91 224.89 57.46 225.85 57.46 231.43 57.46 234.29 52.91 228.26 52.91"/><polygon class="cls-4" points="26.68 57.46 28.04 57.46 24.67 52.91 18.64 52.91 21.5 57.46 26.68 57.46"/><polygon class="cls-5" points="224.35 63.87 224.35 60.46 221.91 60.46 31.02 60.46 28.18 60.46 28.18 63.87 224.35 63.87"/><path class="cls-5" d="M224.35,212.75H80.18a11.54,11.54,0,0,1,1,3.41H224.35Z"/><path class="cls-5" d="M58.62,212.75H28.18v3.41h29.4A11.85,11.85,0,0,1,58.62,212.75Z"/><path class="cls-7" d="M195.89,80.08H56.64A13.28,13.28,0,0,0,43.37,93.35v89.92a13.28,13.28,0,0,0,13.27,13.27H195.89a13.28,13.28,0,0,0,13.27-13.27V93.35A13.28,13.28,0,0,0,195.89,80.08Zm10.27,103.19a10.27,10.27,0,0,1-10.27,10.27H56.64a10.27,10.27,0,0,1-10.27-10.27V93.35A10.28,10.28,0,0,1,56.64,83.08H195.89a10.28,10.28,0,0,1,10.27,10.27Z"/><path class="cls-8" d="M252.52,259.07l-18.76-41.74V59.39l4.51-7.18,0-.05a1.23,1.23,0,0,0,.12-.26l0-.1a1.35,1.35,0,0,0,0-.28.25.25,0,0,0,0-.08s0,0,0,0V1.5A1.5,1.5,0,0,0,237,0H15.93a1.5,1.5,0,0,0-1.5,1.5v50s0,0,0,.06a1.35,1.35,0,0,0,0,.28l0,.1a2.1,2.1,0,0,0,.13.26.08.08,0,0,0,0,.05l4.13,6.57a1.1,1.1,0,0,0,0,.18V217.35L.65,259.3a7.66,7.66,0,0,0-.6,3.85A18,18,0,0,0,1.53,270a1.5,1.5,0,0,0,1.4.94l247.49-.11a1.5,1.5,0,0,0,1.4-1C253,266.75,254.31,262.38,252.52,259.07ZM235.51,3V49.91H229V3ZM21.77,60.46h3.41v155.7H21.77Zm209,155.7h-3.41V60.46h3.41ZM78.35,217.87a8.95,8.95,0,1,1-8.95-9A9,9,0,0,1,78.35,217.87ZM43.54,255l10-25.09H66.81v6.17c-2.76.75-4.68,2.66-4.68,5,0,3,3.19,5.3,7.27,5.3s7.27-2.33,7.27-5.3c0-2.3-1.92-4.21-4.68-5v-6.17H94.27L88.37,255ZM69.4,241.49A2.6,2.6,0,0,0,72,238.9v-.71c1.59.57,2.68,1.63,2.68,2.86,0,1.82-2.36,3.3-5.27,3.3s-5.27-1.48-5.27-3.3c0-1.23,1.09-2.29,2.68-2.86v.71A2.6,2.6,0,0,0,69.4,241.49ZM31,60.46H224.35v3.41H28.18V60.46ZM69.4,205.92a11.92,11.92,0,0,0-8.75,3.83H30l6.25-7h180l6.25,7H78.14A11.9,11.9,0,0,0,69.4,205.92Zm152.53-139-5.59,5H36.18l-5.58-5ZM37.11,199.75V74.87H215.42V199.75Zm181.31.93V74l5.93-5.32v138.6ZM28.18,68.72,34.11,74V200.68l-5.93,6.64Zm0,144H58.62a11.85,11.85,0,0,0-1,3.41H28.18Zm52,0H224.35v3.41H81.21A11.54,11.54,0,0,0,80.18,212.75Zm141-155.29H31.78L28.4,52.91H224.53Zm10.28,0h-6.54l3.37-4.55h6ZM23.92,49.91H17.43V3h6.49Zm.75,3L28,57.46H21.5l-2.86-4.55ZM21.26,219.16H57.52a11.83,11.83,0,0,0,1.33,4.32,11.5,11.5,0,0,0,.6,1,12.08,12.08,0,0,0,3.5,3.44H52.82a1,1,0,0,0-.93.63L41.14,255.64a1,1,0,0,0,.1.93,1,1,0,0,0,.83.44H89.16a1,1,0,0,0,1-.77l6.37-27.09a1,1,0,0,0-1-1.23H75.85a12.08,12.08,0,0,0,3.5-3.44,11.5,11.5,0,0,0,.6-1,12,12,0,0,0,1.33-4.32h150l18.55,41.26a4.81,4.81,0,0,1-4.38,6.78H7.81a4.81,4.81,0,0,1-4.41-6.71ZM226,49.91H26.92V3H226Z"/><path class="cls-5" d="M12.09,256.14l0,0a3.47,3.47,0,0,0,.11,3.51A5.53,5.53,0,0,0,17,262.1H236.3a5.52,5.52,0,0,0,4.81-2.45,3.48,3.48,0,0,0,.06-3.54l-14.38-31.63H79.35a12.08,12.08,0,0,1-3.5,3.44H95.53a1,1,0,0,1,1,1.23l-6.37,27.09a1,1,0,0,1-1,.77H42.07a1,1,0,0,1-.83-.44,1,1,0,0,1-.1-.93l10.75-27.09a1,1,0,0,1,.93-.63H63a12.08,12.08,0,0,1-3.5-3.44H25.8Zm146.08-23.7a2.44,2.44,0,0,1,.05-.48c.51-3.51,6.48-5.09,12.41-5.09s11.83,1.56,12.39,5a2.35,2.35,0,0,1,.06.54v5.24c0,3.85-6.26,5.57-12.45,5.57s-12.46-1.72-12.46-5.57Zm26.57,19.09v-5.24a2.54,2.54,0,0,1,0-.49c.51-3.5,6.47-5.08,12.4-5.08s11.84,1.56,12.4,5a2.51,2.51,0,0,1,.06.55v5.24c0,3.84-6.26,5.57-12.46,5.57S184.74,255.37,184.74,251.53Z"/><path class="cls-5" d="M3.4,260.49a4.81,4.81,0,0,0,4.41,6.71H245.46a4.81,4.81,0,0,0,4.38-6.78l-18.55-41.26h-150A12,12,0,0,1,80,223.48H227.11a.5.5,0,0,1,.46.29l14.49,31.9a4.46,4.46,0,0,1-.09,4.49,6.52,6.52,0,0,1-5.67,2.94H17a6.52,6.52,0,0,1-5.65-2.91,4.49,4.49,0,0,1-.14-4.47L25,223.78a.49.49,0,0,1,.46-.3H58.85a11.83,11.83,0,0,1-1.33-4.32H21.26Z"/><path class="cls-9" d="M25,223.78,11.18,255.72a4.49,4.49,0,0,0,.14,4.47A6.52,6.52,0,0,0,17,263.1H236.3a6.52,6.52,0,0,0,5.67-2.94,4.46,4.46,0,0,0,.09-4.49l-14.49-31.9a.5.5,0,0,0-.46-.29H80a11.5,11.5,0,0,1-.6,1H226.79l14.38,31.63a3.48,3.48,0,0,1-.06,3.54,5.52,5.52,0,0,1-4.81,2.45H17a5.53,5.53,0,0,1-4.79-2.42,3.47,3.47,0,0,1-.11-3.51l0,0L25.8,224.48H59.45a11.5,11.5,0,0,1-.6-1H25.47A.49.49,0,0,0,25,223.78Z"/><path class="cls-10" d="M94.27,229.92H72v6.17c2.76.75,4.68,2.66,4.68,5,0,3-3.2,5.3-7.27,5.3s-7.27-2.33-7.27-5.3c0-2.3,1.92-4.21,4.68-5v-6.17H53.5L43.54,255H88.37Zm-6.55,2.52c.9,0,1.63.46,1.63,1s-.73,1-1.63,1-1.64-.46-1.64-1S86.81,232.44,87.72,232.44Zm-3.61,19.05c.91,0,1.64.46,1.64,1s-.73,1-1.64,1-1.64-.46-1.64-1S83.21,251.49,84.11,251.49ZM57,232.44c.91,0,1.64.46,1.64,1s-.73,1-1.64,1-1.63-.46-1.63-1S56.07,232.44,57,232.44Zm-8.21,19.05c.91,0,1.64.46,1.64,1s-.73,1-1.64,1-1.64-.46-1.64-1S47.85,251.49,48.76,251.49Z"/><path class="cls-11" d="M64.13,241.05c0,1.82,2.36,3.3,5.27,3.3s5.27-1.48,5.27-3.3c0-1.23-1.09-2.29-2.68-2.86v.71a2.59,2.59,0,1,1-5.18,0v-.71C65.22,238.76,64.13,239.82,64.13,241.05Z"/><path class="cls-12" d="M57,234.49c.91,0,1.64-.46,1.64-1s-.73-1-1.64-1-1.63.46-1.63,1S56.07,234.49,57,234.49Z"/><path class="cls-12" d="M87.72,234.49c.9,0,1.63-.46,1.63-1s-.73-1-1.63-1-1.64.46-1.64,1S86.81,234.49,87.72,234.49Z"/><path class="cls-12" d="M48.76,253.55c.91,0,1.64-.46,1.64-1s-.73-1-1.64-1-1.64.46-1.64,1S47.85,253.55,48.76,253.55Z"/><path class="cls-12" d="M84.11,253.55c.91,0,1.64-.46,1.64-1s-.73-1-1.64-1-1.64.46-1.64,1S83.21,253.55,84.11,253.55Z"/><circle class="cls-13" cx="69.4" cy="217.87" r="8.95"/><path class="cls-14" d="M170.63,238c-4.06,0-8.12-.75-10.46-2.33v2c0,2,4.68,3.57,10.46,3.57s10.45-1.6,10.45-3.57v-2C178.74,237.26,174.68,238,170.63,238Z"/><path class="cls-8" d="M170.63,243.25c6.19,0,12.45-1.72,12.45-5.57v-5.24a2.35,2.35,0,0,0-.06-.54c-.56-3.47-6.5-5-12.39-5s-11.9,1.58-12.41,5.09a2.44,2.44,0,0,0-.05.48v5.24C158.17,241.53,164.43,243.25,170.63,243.25Zm0-2c-5.78,0-10.46-1.6-10.46-3.57v-2c2.34,1.58,6.4,2.33,10.46,2.33s8.11-.75,10.45-2.33v2C181.08,239.65,176.4,241.25,170.63,241.25Zm10.45-8.81c0,2-4.68,3.57-10.45,3.57s-10.46-1.6-10.46-3.57,4.68-3.57,10.46-3.57S181.08,230.47,181.08,232.44Z"/><ellipse class="cls-14" cx="170.63" cy="232.44" rx="10.45" ry="3.57"/><path class="cls-15" d="M197.19,255.1c5.78,0,10.46-1.6,10.46-3.57v-2c-2.34,1.58-6.4,2.32-10.46,2.32s-8.11-.74-10.45-2.32v2C186.74,253.5,191.42,255.1,197.19,255.1Z"/><path class="cls-8" d="M209.65,251.53v-5.24a2.51,2.51,0,0,0-.06-.55c-.56-3.46-6.5-5-12.4-5s-11.89,1.58-12.4,5.08a2.54,2.54,0,0,0,0,.49v5.24c0,3.84,6.26,5.57,12.45,5.57S209.65,255.37,209.65,251.53Zm-22.91,0v-2c2.34,1.58,6.4,2.32,10.45,2.32s8.12-.74,10.46-2.32v2c0,2-4.68,3.57-10.46,3.57S186.74,253.5,186.74,251.53Zm20.91-5.24c0,2-4.68,3.56-10.46,3.56s-10.45-1.59-10.45-3.56,4.68-3.57,10.45-3.57S207.65,244.32,207.65,246.29Z"/><ellipse class="cls-15" cx="197.19" cy="246.29" rx="10.45" ry="3.57"/><rect class="cls-16" x="46.37" y="83.08" width="159.8" height="110.47" rx="10.27"/></svg>