<svg xmlns="http://www.w3.org/2000/svg" xmlns:xlink="http://www.w3.org/1999/xlink" viewBox="0 0 1215.93 586.38"><defs><style>.cls-1{fill:none;}.cls-2{isolation:isolate;}.cls-3{fill:url(#radial-gradient);}.cls-14,.cls-4{fill:#4a4a60;}.cls-5{fill:url(#radial-gradient-2);}.cls-10,.cls-6{fill:#fff;}.cls-6{opacity:0.4;}.cls-11,.cls-15,.cls-17,.cls-19,.cls-21,.cls-23,.cls-25,.cls-27,.cls-29,.cls-7{opacity:0.3;}.cls-11,.cls-12,.cls-14,.cls-15,.cls-17,.cls-19,.cls-21,.cls-23,.cls-25,.cls-27,.cls-29,.cls-7{mix-blend-mode:multiply;}.cls-7{fill:url(#linear-gradient);}.cls-8{fill:#120f15;}.cls-9{clip-path:url(#clip-path);}.cls-11{fill:url(#linear-gradient-2);}.cls-12{opacity:0.2;}.cls-13{clip-path:url(#clip-path-2);}.cls-14{opacity:0.25;}.cls-15{fill:url(#linear-gradient-3);}.cls-16{clip-path:url(#clip-path-3);}.cls-17{fill:url(#linear-gradient-4);}.cls-18{clip-path:url(#clip-path-4);}.cls-19{fill:url(#linear-gradient-5);}.cls-20{clip-path:url(#clip-path-5);}.cls-21{fill:url(#linear-gradient-6);}.cls-22{clip-path:url(#clip-path-6);}.cls-23{fill:url(#linear-gradient-7);}.cls-24{clip-path:url(#clip-path-7);}.cls-25{fill:url(#linear-gradient-8);}.cls-26{clip-path:url(#clip-path-8);}.cls-27{fill:url(#linear-gradient-9);}.cls-28{clip-path:url(#clip-path-9);}.cls-29{fill:url(#linear-gradient-10);}.cls-30{clip-path:url(#clip-path-10);}</style><radialGradient id="radial-gradient" cx="630.17" cy="353.01" r="457.07" gradientUnits="userSpaceOnUse"><stop offset="0" stop-color="#4a4a60"/><stop offset="0.2" stop-color="#404052"/><stop offset="0.58" stop-color="#24242f"/><stop offset="1"/></radialGradient><radialGradient id="radial-gradient-2" cx="608.72" cy="269.96" r="367.49" gradientUnits="userSpaceOnUse"><stop offset="0" stop-color="#4a4a60"/><stop offset="1" stop-color="#4a4a60"/></radialGradient><linearGradient id="linear-gradient" x1="331.65" y1="528.96" x2="320.83" y2="599.68" gradientUnits="userSpaceOnUse"><stop offset="0"/><stop offset="0.11" stop-opacity="0.73"/><stop offset="1" stop-opacity="0"/></linearGradient><clipPath id="clip-path"><ellipse class="cls-1" cx="325.29" cy="555.52" rx="37.79" ry="4.69"/></clipPath><linearGradient id="linear-gradient-2" x1="400.28" y1="537.74" x2="391.22" y2="596.99" gradientUnits="userSpaceOnUse"><stop offset="0.17"/><stop offset="0.24" stop-opacity="0.73"/><stop offset="0.8" stop-opacity="0"/></linearGradient><clipPath id="clip-path-2"><path class="cls-1" d="M419,559.23c0-2-3.21-3.25-3.21-3.25H374.06s-3.22,1-3.22,3.25,10.78,4,24.08,4S419,561.44,419,559.23Z"/></clipPath><linearGradient id="linear-gradient-3" x1="451.49" y1="531.07" x2="442.42" y2="590.33" gradientUnits="userSpaceOnUse"><stop offset="0.14"/><stop offset="0.2" stop-opacity="0.73"/><stop offset="0.74" stop-opacity="0"/></linearGradient><clipPath id="clip-path-3"><path class="cls-1" d="M470.2,552.57c0-2-3.22-3.26-3.22-3.26H425.26s-3.21,1.05-3.21,3.26,10.78,4,24.07,4S470.2,554.77,470.2,552.57Z"/></clipPath><linearGradient id="linear-gradient-4" x1="502.86" y1="524.96" x2="493.79" y2="584.22" gradientUnits="userSpaceOnUse"><stop offset="0.12"/><stop offset="0.19" stop-opacity="0.73"/><stop offset="0.75" stop-opacity="0"/></linearGradient><clipPath id="clip-path-4"><path class="cls-1" d="M521.57,546.46c0-2-3.22-3.26-3.22-3.26H476.63s-3.22,1-3.22,3.26,10.78,4,24.08,4S521.57,548.66,521.57,546.46Z"/></clipPath><linearGradient id="linear-gradient-5" x1="547.79" y1="537.74" x2="538.73" y2="596.99" gradientUnits="userSpaceOnUse"><stop offset="0.18"/><stop offset="0.25" stop-opacity="0.73"/><stop offset="0.79" stop-opacity="0"/></linearGradient><clipPath id="clip-path-5"><path class="cls-1" d="M566.5,559.23c0-2-3.21-3.25-3.21-3.25H521.57s-3.22,1-3.22,3.25,10.78,4,24.08,4S566.5,561.44,566.5,559.23Z"/></clipPath><linearGradient id="linear-gradient-6" x1="703.28" y1="528.96" x2="692.47" y2="599.68" xlink:href="#linear-gradient"/><clipPath id="clip-path-6"><ellipse class="cls-1" cx="696.92" cy="555.52" rx="37.79" ry="4.69"/></clipPath><linearGradient id="linear-gradient-7" x1="771.92" y1="537.74" x2="762.85" y2="596.99" xlink:href="#linear-gradient"/><clipPath id="clip-path-7"><path class="cls-1" d="M790.63,559.23c0-2-3.22-3.25-3.22-3.25H745.69s-3.21,1-3.21,3.25,10.78,4,24.07,4S790.63,561.44,790.63,559.23Z"/></clipPath><linearGradient id="linear-gradient-8" x1="823.12" y1="531.07" x2="814.06" y2="590.33" gradientUnits="userSpaceOnUse"><stop offset="0.17"/><stop offset="0.24" stop-opacity="0.73"/><stop offset="0.75" stop-opacity="0"/></linearGradient><clipPath id="clip-path-8"><path class="cls-1" d="M841.83,552.57c0-2-3.21-3.26-3.21-3.26H796.9s-3.22,1.05-3.22,3.26,10.78,4,24.08,4S841.83,554.77,841.83,552.57Z"/></clipPath><linearGradient id="linear-gradient-9" x1="874.49" y1="524.96" x2="865.43" y2="584.22" gradientUnits="userSpaceOnUse"><stop offset="0.24"/><stop offset="0.3" stop-opacity="0.73"/><stop offset="0.76" stop-opacity="0"/></linearGradient><clipPath id="clip-path-9"><path class="cls-1" d="M893.2,546.46c0-2-3.21-3.26-3.21-3.26H848.26s-3.21,1-3.21,3.26,10.78,4,24.08,4S893.2,548.66,893.2,546.46Z"/></clipPath><linearGradient id="linear-gradient-10" x1="919.43" y1="537.74" x2="910.36" y2="596.99" xlink:href="#linear-gradient"/><clipPath id="clip-path-10"><path class="cls-1" d="M938.14,559.23c0-2-3.22-3.25-3.22-3.25H893.2s-3.21,1-3.21,3.25,10.78,4,24.07,4S938.14,561.44,938.14,559.23Z"/></clipPath></defs><title>arcade_1</title><g class="cls-2"><g id="Layer_1" data-name="Layer 1"><path class="cls-3" d="M1020.82,511.4a125.83,125.83,0,0,1-77.13-96.66L876.79,0H334.1L270.69,420.21A125.87,125.87,0,0,1,202.48,514l-66.93,33.44-84,38H1204.22ZM846.19,483.52H371.35a24.82,24.82,0,0,1-24.65-27.64L390,78.39a24.8,24.8,0,0,1,24.65-22H804.34A24.81,24.81,0,0,1,829,78.49L870.85,456A24.81,24.81,0,0,1,846.19,483.52Z"/><path class="cls-4" d="M984.42,457.46l-.93-2a80.54,80.54,0,0,1-6-19L897.53,0H867.78l72.54,439.34a81.73,81.73,0,0,0,3.48,13.6l.89,2.53a80.87,80.87,0,0,0,37.62,44.24l157.36,85.74h76.26l-191.69-88.07A80.84,80.84,0,0,1,984.42,457.46Z"/><path class="cls-4" d="M232.44,455.41l-.93,2a80.88,80.88,0,0,1-39.82,39.92L0,585.45H76.25l157.37-85.74a80.91,80.91,0,0,0,37.62-44.24l.89-2.53a81.73,81.73,0,0,0,3.48-13.6L348.14,0H318.4l-80,436.43A81,81,0,0,1,232.44,455.41Z"/><path class="cls-5" d="M862.16,9H357.3L284.6,531H932.84Zm-16,474.57H371.35a24.82,24.82,0,0,1-24.65-27.64L390,78.39a24.8,24.8,0,0,1,24.65-22H804.34A24.81,24.81,0,0,1,829,78.49L870.85,456A24.81,24.81,0,0,1,846.19,483.52Z"/><polygon class="cls-6" points="932.84 530.97 1096.37 585.46 135.55 585.46 284.6 530.97 932.84 530.97"/><polygon class="cls-7" points="354.62 554.72 354.62 586.38 295.95 585.82 295.95 554.72 354.62 554.72"/><circle class="cls-8" cx="325.29" cy="488.86" r="26.28"/><ellipse class="cls-4" cx="325.29" cy="555.52" rx="37.79" ry="4.69"/><g class="cls-9"><polygon class="cls-4" points="354.62 554.72 339.46 568.13 280.57 562.48 295.95 552.56 354.62 554.72"/></g><path class="cls-4" d="M325.29,546.38C309.08,546.38,296,548,296,550v4.7c0,2,13.13,3.64,29.34,3.64s29.33-1.63,29.33-3.64V550C354.62,548,341.49,546.38,325.29,546.38Z"/><path class="cls-10" d="M354.62,550c0-2-13.13-3.64-29.33-3.64-13.37,0-24.64,1.11-28.18,2.63,4.28-1.36,14.89-2.32,27.31-2.32,16.21,0,29.34,1.64,29.34,3.65v5.18l.23-.21a2,2,0,0,0,.63-1.47Z"/><path class="cls-4" d="M320.52,514.46h9.54a0,0,0,0,1,0,0v33.66a1.89,1.89,0,0,1-1.89,1.89h-5.75a1.89,1.89,0,0,1-1.89-1.89V514.46A0,0,0,0,1,320.52,514.46Z"/><path class="cls-10" d="M351.57,488.86a26.27,26.27,0,0,0-46.14-17.2,26.27,26.27,0,0,1,37.06,37.06A26.2,26.2,0,0,0,351.57,488.86Z"/><path class="cls-10" d="M328.16,550h-.45l-.08-33.67h2.43v31.78A1.9,1.9,0,0,1,328.16,550Z"/><polygon class="cls-11" points="418.99 559.23 418.99 586.38 370.84 585.46 370.84 559.23 418.99 559.23"/><path class="cls-4" d="M419,559.23c0-2-3.21-3.25-3.21-3.25H374.06s-3.22,1-3.22,3.25,10.78,4,24.08,4S419,561.44,419,559.23Z"/><path class="cls-10" d="M419,559.23a2.78,2.78,0,0,0-1.37-1.76,7.46,7.46,0,0,0-1-.53,6.6,6.6,0,0,0-1.05-.37l.22,0c-3.48.35-6.95.59-10.43.71-1.74.07-3.48.12-5.22.12s-3.47,0-5.21,0-3.48-.05-5.22-.13-3.47-.14-5.21-.25c-3.48-.24-7-.54-10.43-1.1,3.47-.56,6.95-.86,10.43-1.1,1.74-.11,3.47-.21,5.21-.25s3.48-.12,5.22-.14,3.47,0,5.21,0,3.48.06,5.22.13c3.48.12,6.95.36,10.43.71l.18,0,0,0a8.68,8.68,0,0,1,1.11.69,6.49,6.49,0,0,1,1,.85,3.57,3.57,0,0,1,.73,1.07A2.12,2.12,0,0,1,419,559.23Z"/><g class="cls-12"><g class="cls-13"><path class="cls-4" d="M415.78,556.31c-4.9,4.24-3.38,13.58-3.38,13.58l-42.24-.74s-.54-7.67,3.9-13.17S411.64,554.13,415.78,556.31Z"/></g></g><path class="cls-4" d="M415.78,556v-3.92H374.06V556c0,1.91,9.34,3.46,20.86,3.46S415.78,557.89,415.78,556Z"/><path class="cls-14" d="M415.78,556v-3.92H374.06V556c0,1.91,9.34,3.46,20.86,3.46S415.78,557.89,415.78,556Z"/><ellipse class="cls-4" cx="394.92" cy="552.06" rx="20.86" ry="3.46"/><path class="cls-10" d="M415.78,552.06c-.09-.46-.54-.67-.92-.85a9.22,9.22,0,0,0-1.26-.4,25.63,25.63,0,0,0-2.62-.46c-1.77-.24-3.56-.36-5.34-.48q-5.36-.29-10.72-.27t-10.73.28c-1.78.11-3.56.23-5.33.47a25.63,25.63,0,0,0-2.62.46,8.8,8.8,0,0,0-1.26.4c-.38.18-.83.39-.92.85,0-.49.42-.84.77-1.11a8.58,8.58,0,0,1,1.23-.66,20.11,20.11,0,0,1,2.61-.9,46.79,46.79,0,0,1,5.37-1.07,79.21,79.21,0,0,1,10.88-.72,80.94,80.94,0,0,1,10.88.73,45.1,45.1,0,0,1,5.37,1.06,22.35,22.35,0,0,1,2.61.9A8,8,0,0,1,415,551C415.36,551.22,415.8,551.57,415.78,552.06Z"/><polygon class="cls-15" points="470.2 552.57 470.2 579.72 422.05 578.79 422.05 552.57 470.2 552.57"/><path class="cls-4" d="M470.2,552.57c0-2-3.22-3.26-3.22-3.26H425.26s-3.21,1.05-3.21,3.26,10.78,4,24.07,4S470.2,554.77,470.2,552.57Z"/><path class="cls-10" d="M470.2,552.57a2.78,2.78,0,0,0-1.38-1.77,6,6,0,0,0-1-.52,7.85,7.85,0,0,0-1.05-.38l.22,0q-5.21.52-10.43.71c-1.73.08-3.47.12-5.21.13s-3.48,0-5.22,0-3.47-.06-5.21-.13-3.48-.14-5.22-.26c-3.47-.23-6.95-.53-10.43-1.1,3.48-.56,7-.86,10.43-1.09,1.74-.12,3.48-.21,5.22-.26s3.47-.11,5.21-.13,3.48,0,5.22,0,3.48,0,5.21.13q5.22.16,10.43.71l.18,0,0,0a9.39,9.39,0,0,1,1.11.68,7,7,0,0,1,1,.86,4.09,4.09,0,0,1,.73,1.06A2.33,2.33,0,0,1,470.2,552.57Z"/><g class="cls-12"><g class="cls-16"><path class="cls-4" d="M467,549.65c-4.89,4.23-3.38,13.57-3.38,13.57l-42.24-.73s-.54-7.68,3.9-13.18S462.84,547.46,467,549.65Z"/></g></g><path class="cls-4" d="M467,549.31V545.4H425.26v3.91c0,1.91,9.34,3.46,20.86,3.46S467,551.22,467,549.31Z"/><path class="cls-14" d="M467,549.31V545.4H425.26v3.91c0,1.91,9.34,3.46,20.86,3.46S467,551.22,467,549.31Z"/><ellipse class="cls-4" cx="446.12" cy="545.4" rx="20.86" ry="3.46"/><path class="cls-10" d="M467,545.4c-.08-.47-.54-.68-.92-.85a6.84,6.84,0,0,0-1.26-.4,20.8,20.8,0,0,0-2.62-.46c-1.77-.24-3.55-.36-5.33-.48q-5.36-.3-10.73-.28c-3.57,0-7.15.09-10.72.28-1.78.12-3.57.24-5.33.48a22.94,22.94,0,0,0-2.63.46,6.74,6.74,0,0,0-1.25.4c-.39.17-.84.38-.93.85,0-.49.42-.85.78-1.11a7.24,7.24,0,0,1,1.22-.67,20.59,20.59,0,0,1,2.61-.89,43.23,43.23,0,0,1,5.37-1.07,82.56,82.56,0,0,1,21.76,0,42.87,42.87,0,0,1,5.37,1.07,19.56,19.56,0,0,1,2.61.89,8.64,8.64,0,0,1,1.23.67C466.57,544.55,467,544.91,467,545.4Z"/><polygon class="cls-17" points="521.57 546.46 521.57 573.61 473.41 572.68 473.41 546.46 521.57 546.46"/><path class="cls-4" d="M521.57,546.46c0-2-3.22-3.26-3.22-3.26H476.63s-3.22,1-3.22,3.26,10.78,4,24.08,4S521.57,548.66,521.57,546.46Z"/><path class="cls-10" d="M521.57,546.46a2.85,2.85,0,0,0-1.38-1.77,7.4,7.4,0,0,0-1-.52,7.85,7.85,0,0,0-1-.38l.22,0c-3.48.35-7,.6-10.43.71-1.74.08-3.48.12-5.21.13s-3.48,0-5.22,0-3.48-.06-5.22-.13-3.47-.14-5.21-.26c-3.48-.23-6.95-.53-10.43-1.1,3.48-.56,6.95-.86,10.43-1.09,1.74-.12,3.48-.21,5.21-.26s3.48-.11,5.22-.13,3.48,0,5.22,0,3.47,0,5.21.13c3.48.11,6.95.36,10.43.71l.18,0,0,0a7.18,7.18,0,0,1,1.11.69,5.52,5.52,0,0,1,1,.85,3.89,3.89,0,0,1,.74,1.06A2.33,2.33,0,0,1,521.57,546.46Z"/><g class="cls-12"><g class="cls-18"><path class="cls-4" d="M518.35,543.54c-4.89,4.23-3.38,13.57-3.38,13.57l-42.24-.73s-.54-7.68,3.9-13.18S514.21,541.35,518.35,543.54Z"/></g></g><path class="cls-4" d="M518.35,543.2v-3.91H476.63v3.91c0,1.92,9.34,3.46,20.86,3.46S518.35,545.12,518.35,543.2Z"/><path class="cls-14" d="M518.35,543.2v-3.91H476.63v3.91c0,1.92,9.34,3.46,20.86,3.46S518.35,545.12,518.35,543.2Z"/><ellipse class="cls-4" cx="497.49" cy="539.29" rx="20.86" ry="3.46"/><path class="cls-10" d="M518.35,539.29c-.09-.47-.54-.68-.92-.85a6.84,6.84,0,0,0-1.26-.4,21.12,21.12,0,0,0-2.62-.46c-1.77-.24-3.55-.36-5.34-.48-3.56-.2-7.14-.29-10.72-.27s-7.16.08-10.72.27c-1.79.12-3.57.24-5.34.48a25.63,25.63,0,0,0-2.62.46,7.7,7.7,0,0,0-1.26.4c-.38.17-.83.38-.92.85,0-.49.42-.85.77-1.11a7.74,7.74,0,0,1,1.23-.67,20.59,20.59,0,0,1,2.61-.89,42.87,42.87,0,0,1,5.37-1.07,82.56,82.56,0,0,1,21.76,0,43.23,43.23,0,0,1,5.37,1.07,20.59,20.59,0,0,1,2.61.89,8.64,8.64,0,0,1,1.23.67C517.93,538.44,518.37,538.8,518.35,539.29Z"/><polygon class="cls-19" points="566.5 559.23 566.5 586.38 518.35 585.46 518.35 559.23 566.5 559.23"/><path class="cls-4" d="M566.5,559.23c0-2-3.21-3.25-3.21-3.25H521.57s-3.22,1-3.22,3.25,10.78,4,24.08,4S566.5,561.44,566.5,559.23Z"/><path class="cls-10" d="M566.5,559.23a2.78,2.78,0,0,0-1.37-1.76,7.46,7.46,0,0,0-1-.53,6.6,6.6,0,0,0-1-.37l.22,0q-5.22.52-10.43.71c-1.74.07-3.48.12-5.22.12s-3.47,0-5.21,0-3.48-.05-5.22-.13-3.48-.14-5.21-.25c-3.48-.24-7-.54-10.43-1.1,3.47-.56,6.95-.86,10.43-1.1,1.73-.11,3.47-.21,5.21-.25s3.48-.12,5.22-.14,3.47,0,5.21,0,3.48.06,5.22.13q5.21.18,10.43.71l.18,0,0,0a8.68,8.68,0,0,1,1.11.69,6.49,6.49,0,0,1,1,.85,3.57,3.57,0,0,1,.73,1.07A2.21,2.21,0,0,1,566.5,559.23Z"/><g class="cls-12"><g class="cls-20"><path class="cls-4" d="M563.29,556.31c-4.9,4.24-3.38,13.58-3.38,13.58l-42.24-.74s-.55-7.67,3.9-13.17S559.15,554.13,563.29,556.31Z"/></g></g><path class="cls-4" d="M563.29,556v-3.92H521.57V556c0,1.91,9.34,3.46,20.86,3.46S563.29,557.89,563.29,556Z"/><path class="cls-14" d="M563.29,556v-3.92H521.57V556c0,1.91,9.34,3.46,20.86,3.46S563.29,557.89,563.29,556Z"/><ellipse class="cls-4" cx="542.43" cy="552.06" rx="20.86" ry="3.46"/><path class="cls-10" d="M563.29,552.06c-.09-.46-.54-.67-.93-.85a8.67,8.67,0,0,0-1.25-.4,25.34,25.34,0,0,0-2.63-.46c-1.76-.24-3.55-.36-5.33-.48q-5.35-.29-10.72-.27t-10.73.28c-1.78.11-3.56.23-5.33.47a25.63,25.63,0,0,0-2.62.46,8.8,8.8,0,0,0-1.26.4c-.38.18-.84.39-.92.85,0-.49.41-.84.77-1.11a8.58,8.58,0,0,1,1.23-.66,19.61,19.61,0,0,1,2.61-.9,46.79,46.79,0,0,1,5.37-1.07,79.21,79.21,0,0,1,10.88-.72,80.94,80.94,0,0,1,10.88.73,45.1,45.1,0,0,1,5.37,1.06,22.35,22.35,0,0,1,2.61.9,8,8,0,0,1,1.22.66C562.87,551.22,563.31,551.57,563.29,552.06Z"/><polygon class="cls-21" points="726.26 554.72 726.26 586.38 667.58 585.82 667.58 554.72 726.26 554.72"/><circle class="cls-8" cx="696.92" cy="488.86" r="26.28"/><ellipse class="cls-4" cx="696.92" cy="555.52" rx="37.79" ry="4.69"/><g class="cls-22"><polygon class="cls-4" points="726.26 554.72 711.09 568.13 652.21 562.48 667.58 552.56 726.26 554.72"/></g><path class="cls-4" d="M696.92,546.38c-16.2,0-29.34,1.63-29.34,3.64v4.7c0,2,13.14,3.64,29.34,3.64s29.34-1.63,29.34-3.64V550C726.26,548,713.12,546.38,696.92,546.38Z"/><path class="cls-10" d="M726.26,550c0-2-13.14-3.64-29.34-3.64-13.36,0-24.63,1.11-28.17,2.63,4.28-1.36,14.89-2.32,27.31-2.32,16.2,0,29.34,1.64,29.34,3.65v5.18l.22-.21a2,2,0,0,0,.64-1.47Z"/><path class="cls-4" d="M692.15,514.46h9.54a0,0,0,0,1,0,0v33.66A1.89,1.89,0,0,1,699.8,550H694a1.89,1.89,0,0,1-1.89-1.89V514.46A0,0,0,0,1,692.15,514.46Z"/><path class="cls-10" d="M723.2,488.86a26.27,26.27,0,0,0-46.14-17.2,26.27,26.27,0,0,1,37.06,37.06A26.2,26.2,0,0,0,723.2,488.86Z"/><path class="cls-10" d="M699.8,550h-.46l-.08-33.67h2.43v31.78A1.89,1.89,0,0,1,699.8,550Z"/><polygon class="cls-23" points="790.63 559.23 790.63 586.38 742.48 585.46 742.48 559.23 790.63 559.23"/><path class="cls-4" d="M790.63,559.23c0-2-3.22-3.25-3.22-3.25H745.69s-3.21,1-3.21,3.25,10.78,4,24.07,4S790.63,561.44,790.63,559.23Z"/><path class="cls-10" d="M790.63,559.23a2.76,2.76,0,0,0-1.38-1.76,6.91,6.91,0,0,0-1-.53,6.27,6.27,0,0,0-1-.37l.22,0q-5.2.52-10.43.71c-1.73.07-3.47.12-5.21.12s-3.48,0-5.22,0-3.47-.05-5.21-.13-3.48-.14-5.22-.25c-3.47-.24-7-.54-10.43-1.1,3.48-.56,7-.86,10.43-1.1,1.74-.11,3.48-.21,5.22-.25s3.48-.12,5.21-.14,3.48,0,5.22,0,3.48.06,5.21.13q5.22.18,10.43.71l.18,0,0,0a9.44,9.44,0,0,1,1.11.69,7.68,7.68,0,0,1,1,.85,4,4,0,0,1,.73,1.07A2.3,2.3,0,0,1,790.63,559.23Z"/><g class="cls-12"><g class="cls-24"><path class="cls-4" d="M787.41,556.31c-4.89,4.24-3.37,13.58-3.37,13.58l-42.25-.74s-.54-7.67,3.9-13.17S783.27,554.13,787.41,556.31Z"/></g></g><path class="cls-4" d="M787.41,556v-3.92H745.69V556c0,1.91,9.34,3.46,20.86,3.46S787.41,557.89,787.41,556Z"/><path class="cls-14" d="M787.41,556v-3.92H745.69V556c0,1.91,9.34,3.46,20.86,3.46S787.41,557.89,787.41,556Z"/><ellipse class="cls-4" cx="766.55" cy="552.06" rx="20.86" ry="3.46"/><path class="cls-10" d="M787.41,552.06c-.08-.46-.54-.67-.92-.85a9.09,9.09,0,0,0-1.25-.4,25.82,25.82,0,0,0-2.63-.46c-1.76-.24-3.55-.36-5.33-.48q-5.35-.29-10.73-.27c-3.57,0-7.15.08-10.72.28-1.78.11-3.57.23-5.33.47a25.82,25.82,0,0,0-2.63.46,8.67,8.67,0,0,0-1.25.4c-.38.18-.84.39-.93.85,0-.49.42-.84.78-1.11a8,8,0,0,1,1.22-.66,20.64,20.64,0,0,1,2.61-.9,47.22,47.22,0,0,1,5.37-1.07,79.32,79.32,0,0,1,10.88-.72,80.72,80.72,0,0,1,10.88.73,45.26,45.26,0,0,1,5.38,1.06,21.58,21.58,0,0,1,2.6.9,8.58,8.58,0,0,1,1.23.66C787,551.22,787.43,551.57,787.41,552.06Z"/><polygon class="cls-25" points="841.84 552.57 841.84 579.72 793.68 578.79 793.68 552.57 841.84 552.57"/><path class="cls-4" d="M841.83,552.57c0-2-3.21-3.26-3.21-3.26H796.9s-3.22,1.05-3.22,3.26,10.78,4,24.08,4S841.83,554.77,841.83,552.57Z"/><path class="cls-10" d="M841.83,552.57a2.8,2.8,0,0,0-1.37-1.77,6.43,6.43,0,0,0-1-.52,7.85,7.85,0,0,0-1.05-.38l.22,0c-3.48.35-7,.59-10.43.71-1.74.08-3.48.12-5.22.13s-3.47,0-5.21,0-3.48-.06-5.22-.13-3.47-.14-5.21-.26c-3.48-.23-7-.53-10.43-1.1,3.47-.56,7-.86,10.43-1.09,1.74-.12,3.47-.21,5.21-.26s3.48-.11,5.22-.13,3.48,0,5.21,0,3.48,0,5.22.13c3.48.11,6.95.35,10.43.71l.18,0,0,0a8,8,0,0,1,1.11.68,6,6,0,0,1,1,.86,3.65,3.65,0,0,1,.73,1.06A2.16,2.16,0,0,1,841.83,552.57Z"/><g class="cls-12"><g class="cls-26"><path class="cls-4" d="M838.62,549.65c-4.9,4.23-3.38,13.57-3.38,13.57L793,562.49s-.54-7.68,3.9-13.18S834.48,547.46,838.62,549.65Z"/></g></g><path class="cls-4" d="M838.62,549.31V545.4H796.9v3.91c0,1.91,9.34,3.46,20.86,3.46S838.62,551.22,838.62,549.31Z"/><path class="cls-14" d="M838.62,549.31V545.4H796.9v3.91c0,1.91,9.34,3.46,20.86,3.46S838.62,551.22,838.62,549.31Z"/><ellipse class="cls-4" cx="817.76" cy="545.4" rx="20.86" ry="3.46"/><path class="cls-10" d="M838.62,545.4c-.09-.47-.54-.68-.92-.85a6.84,6.84,0,0,0-1.26-.4,21.12,21.12,0,0,0-2.62-.46c-1.77-.24-3.55-.36-5.34-.48q-5.36-.3-10.72-.28c-3.58,0-7.16.09-10.73.28-1.78.12-3.56.24-5.33.48a23.15,23.15,0,0,0-2.62.46,6.84,6.84,0,0,0-1.26.4c-.38.17-.83.38-.92.85,0-.49.42-.85.77-1.11a7.74,7.74,0,0,1,1.23-.67,20.59,20.59,0,0,1,2.61-.89,42.87,42.87,0,0,1,5.37-1.07,82.56,82.56,0,0,1,21.76,0,43.23,43.23,0,0,1,5.37,1.07,20.59,20.59,0,0,1,2.61.89,8,8,0,0,1,1.22.67C838.2,544.55,838.64,544.91,838.62,545.4Z"/><polygon class="cls-27" points="893.2 546.46 893.2 573.61 845.05 572.68 845.05 546.46 893.2 546.46"/><path class="cls-4" d="M893.2,546.46c0-2-3.21-3.26-3.21-3.26H848.26s-3.21,1-3.21,3.26,10.78,4,24.08,4S893.2,548.66,893.2,546.46Z"/><path class="cls-10" d="M893.2,546.46a2.8,2.8,0,0,0-1.37-1.77,8.62,8.62,0,0,0-2.07-.9l.23,0c-3.48.35-7,.6-10.43.71-1.74.08-3.48.12-5.22.13s-3.48,0-5.21,0-3.48-.06-5.22-.13-3.48-.14-5.22-.26c-3.47-.23-7-.53-10.43-1.1,3.48-.56,7-.86,10.43-1.09,1.74-.12,3.48-.21,5.22-.26s3.48-.11,5.22-.13,3.47,0,5.21,0,3.48,0,5.22.13c3.47.11,7,.36,10.43.71l.17,0,.05,0a7.69,7.69,0,0,1,1.11.69,5.52,5.52,0,0,1,1,.85,3.86,3.86,0,0,1,.73,1.06A2.24,2.24,0,0,1,893.2,546.46Z"/><g class="cls-12"><g class="cls-28"><path class="cls-4" d="M890,543.54c-4.9,4.23-3.38,13.57-3.38,13.57l-42.24-.73s-.55-7.68,3.89-13.18S885.85,541.35,890,543.54Z"/></g></g><path class="cls-4" d="M890,543.2v-3.91H848.26v3.91c0,1.92,9.34,3.46,20.87,3.46S890,545.12,890,543.2Z"/><path class="cls-14" d="M890,543.2v-3.91H848.26v3.91c0,1.92,9.34,3.46,20.87,3.46S890,545.12,890,543.2Z"/><ellipse class="cls-4" cx="869.13" cy="539.29" rx="20.86" ry="3.46"/><path class="cls-10" d="M890,539.29c-.09-.47-.55-.68-.93-.85a6.74,6.74,0,0,0-1.25-.4,21.27,21.27,0,0,0-2.63-.46c-1.76-.24-3.55-.36-5.33-.48-3.57-.2-7.15-.29-10.72-.27s-7.16.08-10.73.27c-1.78.12-3.57.24-5.33.48a25.82,25.82,0,0,0-2.63.46,7.9,7.9,0,0,0-1.25.4c-.38.17-.84.38-.93.85,0-.49.42-.85.78-1.11a7.33,7.33,0,0,1,1.23-.67,19.93,19.93,0,0,1,2.6-.89,43.23,43.23,0,0,1,5.37-1.07,82.64,82.64,0,0,1,21.77,0,43.23,43.23,0,0,1,5.37,1.07,20.59,20.59,0,0,1,2.61.89,8.53,8.53,0,0,1,1.22.67C889.57,538.44,890,538.8,890,539.29Z"/><polygon class="cls-29" points="938.14 559.23 938.14 586.38 889.99 585.46 889.99 559.23 938.14 559.23"/><path class="cls-4" d="M938.14,559.23c0-2-3.22-3.25-3.22-3.25H893.2s-3.21,1-3.21,3.25,10.78,4,24.07,4S938.14,561.44,938.14,559.23Z"/><path class="cls-10" d="M938.14,559.23a2.76,2.76,0,0,0-1.38-1.76,6.91,6.91,0,0,0-1-.53,6.6,6.6,0,0,0-1-.37l.22,0q-5.2.52-10.43.71c-1.74.07-3.47.12-5.21.12s-3.48,0-5.22,0-3.47-.05-5.21-.13-3.48-.14-5.22-.25c-3.47-.24-7-.54-10.43-1.1,3.48-.56,7-.86,10.43-1.1,1.74-.11,3.48-.21,5.22-.25s3.47-.12,5.21-.14,3.48,0,5.22,0,3.47.06,5.21.13q5.22.18,10.43.71l.18,0,0,0a9.44,9.44,0,0,1,1.11.69,7.68,7.68,0,0,1,1,.85A4,4,0,0,1,938,558,2.3,2.3,0,0,1,938.14,559.23Z"/><g class="cls-12"><g class="cls-30"><path class="cls-4" d="M934.92,556.31c-4.89,4.24-3.38,13.58-3.38,13.58l-42.24-.74s-.54-7.67,3.9-13.17S930.78,554.13,934.92,556.31Z"/></g></g><path class="cls-4" d="M934.92,556v-3.92H893.2V556c0,1.91,9.34,3.46,20.86,3.46S934.92,557.89,934.92,556Z"/><path class="cls-14" d="M934.92,556v-3.92H893.2V556c0,1.91,9.34,3.46,20.86,3.46S934.92,557.89,934.92,556Z"/><ellipse class="cls-4" cx="914.06" cy="552.06" rx="20.86" ry="3.46"/><path class="cls-10" d="M934.92,552.06c-.08-.46-.54-.67-.92-.85a8.8,8.8,0,0,0-1.26-.4,25.15,25.15,0,0,0-2.62-.46c-1.77-.24-3.55-.36-5.33-.48q-5.35-.29-10.73-.27t-10.72.28c-1.78.11-3.57.23-5.33.47a25.34,25.34,0,0,0-2.63.46,8.67,8.67,0,0,0-1.25.4c-.39.18-.84.39-.93.85,0-.49.42-.84.78-1.11a8,8,0,0,1,1.22-.66,20.64,20.64,0,0,1,2.61-.9,47.22,47.22,0,0,1,5.37-1.07,79.32,79.32,0,0,1,10.88-.72,80.83,80.83,0,0,1,10.88.73,44.71,44.71,0,0,1,5.37,1.06,21.14,21.14,0,0,1,2.61.9,8.58,8.58,0,0,1,1.23.66C934.51,551.22,934.94,551.57,934.92,552.06Z"/></g></g></svg>